<?xml version="1.0" standalone="no"?>
<!DOCTYPE svg PUBLIC "-//W3C//DTD SVG 20010904//EN"
 "http://www.w3.org/TR/2001/REC-SVG-20010904/DTD/svg10.dtd">
<svg version="1.0" xmlns="http://www.w3.org/2000/svg"
 width="50px" height="50px" viewBox="0 0 500.000000 500.000000"
 preserveAspectRatio="xMidYMid meet">

<g transform="translate(0.000000,500.000000) scale(0.100000,-0.100000)"
fill="#000000" stroke="none">
<path d="M751 3398 c0 -10 7 -52 16 -93 l16 -76 24 63 c13 34 28 67 32 71 5 5
19 -21 32 -56 13 -36 26 -64 30 -62 3 3 12 33 18 67 7 35 15 71 18 82 3 12 1
16 -6 12 -6 -4 -11 -17 -12 -29 0 -12 -6 -40 -13 -62 l-12 -40 -23 63 c-25 66
-35 76 -45 39 -3 -13 -13 -41 -22 -63 l-18 -39 -17 70 c-9 39 -17 62 -18 53z"/>
<path d="M1160 3320 l0 -90 53 2 52 1 -45 6 c-44 6 -45 7 -45 41 0 34 1 35 38
35 20 0 37 3 37 8 0 4 -18 7 -41 7 -39 0 -40 1 -37 33 3 30 6 32 48 38 l45 6
-52 1 -53 2 0 -90z"/>
<path d="M1500 3319 l0 -92 40 6 c66 9 90 45 54 81 -10 11 -12 21 -6 32 21 37
-6 64 -65 64 -22 0 -23 -3 -23 -91z m64 75 c9 -3 16 -16 16 -29 0 -23 -17 -35
-51 -35 -15 0 -19 7 -19 35 0 36 15 44 54 29z m30 -97 c9 -15 7 -22 -13 -38
-13 -10 -34 -19 -47 -19 -21 0 -24 4 -24 41 l0 40 36 -3 c22 -2 41 -10 48 -21z"/>
<path d="M1834 3320 c0 -52 1 -74 3 -47 2 26 2 68 0 95 -2 26 -3 4 -3 -48z"/>
<path d="M2178 3343 l-3 -68 -43 63 c-23 34 -45 62 -47 62 -3 0 -4 -39 -3 -87
2 -83 2 -84 5 -20 2 37 7 67 11 67 4 0 26 -28 50 -62 l42 -62 0 87 c0 48 -2
87 -5 87 -2 0 -5 -30 -7 -67z"/>
<path d="M2792 3318 c1 -51 3 -74 5 -50 4 43 14 52 32 30 6 -7 22 -26 37 -43
20 -22 22 -24 10 -5 -28 44 -29 51 -7 66 45 32 16 94 -45 94 l-34 0 2 -92z
m72 69 c11 -8 17 -23 14 -38 -2 -20 -9 -25 -40 -27 l-38 -3 0 40 c0 36 3 41
23 41 13 0 31 -6 41 -13z"/>
<path d="M3120 3320 c0 -88 1 -90 24 -90 37 0 86 20 96 40 14 26 12 82 -4 102
-15 20 -58 38 -92 38 -24 0 -24 -1 -24 -90z m88 60 c63 -38 33 -130 -43 -130
l-35 0 0 68 c0 38 3 72 7 75 12 12 37 7 71 -13z"/>
<path d="M3530 3403 c-27 -10 -50 -47 -50 -84 0 -64 61 -104 121 -79 36 15 49
37 49 83 0 62 -59 102 -120 80z m84 -24 c55 -43 22 -133 -49 -133 -70 0 -101
79 -50 129 30 30 64 32 99 4z"/>
<path d="M3905 3384 c-50 -53 -23 -139 46 -150 29 -5 41 -1 65 20 16 14 23 26
17 26 -7 0 -13 -4 -13 -9 0 -5 -14 -14 -31 -20 -40 -14 -80 3 -93 40 -28 80
60 141 119 83 9 -9 18 -14 21 -11 3 2 -7 14 -22 26 -37 29 -79 27 -109 -5z"/>
<path d="M4273 3320 c0 -52 2 -76 4 -52 2 23 8 42 14 42 5 0 9 -4 9 -8 0 -4
14 -23 31 -42 34 -39 29 -23 -9 27 -23 31 -23 34 -8 55 42 60 45 69 8 28 l-41
-45 -4 45 c-2 25 -4 2 -4 -50z"/>
<path d="M2451 3319 c-18 -44 -31 -82 -28 -85 3 -3 9 8 15 23 9 26 13 28 55
25 39 -3 46 -8 52 -29 3 -14 8 -23 11 -20 7 7 -57 167 -66 167 -3 0 -21 -36
-39 -81z m55 26 c20 -48 18 -55 -16 -55 -16 0 -30 5 -30 12 0 14 23 78 28 78
1 0 10 -16 18 -35z"/>
<path d="M3340 3167 c-3 -3 -87 -11 -188 -18 -162 -11 -179 -14 -153 -25 56
-24 65 -58 69 -271 l4 -193 -36 0 c-63 0 -98 -57 -58 -93 26 -24 58 -21 77 6
15 20 16 -1 13 -288 -3 -351 -7 -371 -75 -398 -34 -13 -27 -14 133 -23 93 -4
223 -8 289 -8 106 0 129 3 195 28 41 15 83 28 93 29 9 1 17 6 17 12 0 6 18 24
39 41 93 71 173 209 205 352 21 92 22 275 2 368 -49 237 -185 398 -386 458
-55 17 -230 33 -240 23z m164 -22 c129 -27 230 -112 296 -250 53 -112 71 -189
77 -345 6 -151 -10 -263 -52 -377 -27 -70 -97 -183 -103 -165 -2 7 -8 12 -13
12 -4 0 -6 -6 -3 -13 9 -24 -36 -66 -114 -104 l-76 -38 -126 1 c-77 1 -142 7
-170 16 l-45 14 -3 367 c-2 340 -1 367 15 367 16 0 16 1 0 13 -16 11 -17 35
-15 246 l3 235 33 8 c107 28 205 32 296 13z m-434 -517 c0 -19 -2 -20 -10 -8
-13 19 -13 30 0 30 6 0 10 -10 10 -22z"/>
<path d="M3263 2606 c224 -92 381 -279 430 -512 9 -38 16 -57 16 -43 2 45 -43
181 -82 251 -44 79 -121 165 -194 220 -58 42 -188 108 -213 108 -8 0 11 -11
43 -24z"/>
<path d="M1246 3126 c61 -27 85 -70 188 -345 60 -159 74 -206 64 -212 -10 -7
-9 -9 3 -9 19 0 13 14 166 -390 63 -168 118 -309 122 -313 5 -4 21 27 37 70
37 98 38 101 25 83 -5 -8 -12 -12 -15 -10 -4 5 -74 185 -157 409 -22 57 -37
106 -34 109 11 12 93 -59 147 -127 64 -80 128 -176 128 -191 0 -6 4 -10 9 -10
5 0 20 -17 32 -37 13 -21 70 -110 128 -198 171 -259 277 -382 446 -518 162
-130 315 -189 487 -185 l83 1 -105 8 c-237 17 -370 86 -598 312 -108 107 -195
219 -328 425 -53 81 -104 159 -115 174 -10 15 -19 33 -19 41 0 13 108 308 115
316 5 5 17 -25 145 -364 62 -165 116 -304 120 -308 10 -11 60 125 50 138 -4 6
-35 82 -68 170 -33 88 -90 238 -127 334 l-66 173 56 151 c85 227 121 289 178
306 23 7 -5 9 -108 9 -102 0 -131 -2 -108 -9 78 -23 84 -104 19 -294 l-44
-130 -22 50 c-37 84 -90 251 -90 283 0 48 20 81 54 91 21 6 -20 9 -134 10
-147 0 -162 -1 -134 -13 62 -27 90 -78 196 -361 l79 -210 -57 -155 c-31 -85
-60 -159 -64 -163 -4 -4 -26 21 -50 55 -88 128 -150 193 -218 233 -32 18 -41
35 -104 200 -76 200 -100 284 -91 326 7 38 45 71 90 79 22 5 -42 8 -152 8
-168 1 -186 0 -159 -12z"/>
<path d="M2615 3129 c80 -19 115 -87 95 -184 -11 -52 -102 -316 -209 -609 -28
-76 -50 -140 -48 -142 2 -2 52 125 112 284 224 595 233 614 296 645 33 16 30
17 -126 16 -122 -1 -150 -3 -120 -10z"/>
<path d="M1352 2529 c-118 -58 -183 -159 -190 -294 -5 -101 19 -172 84 -244
77 -85 217 -135 314 -112 28 6 21 8 -40 8 -142 0 -246 58 -309 173 -34 62 -36
70 -36 160 0 89 2 99 34 158 50 92 130 151 232 171 l44 9 -36 1 c-22 1 -60
-11 -97 -30z"/>
<path d="M1906 2165 c-9 -26 -7 -32 5 -12 6 10 9 21 6 23 -2 3 -7 -2 -11 -11z"/>
<path d="M2431 2149 c-6 -18 -9 -34 -7 -36 2 -2 9 10 15 28 6 18 9 34 7 36 -2
2 -9 -10 -15 -28z"/>
<path d="M1876 2085 c-9 -26 -7 -32 5 -12 6 10 9 21 6 23 -2 3 -7 -2 -11 -11z"/>
<path d="M3701 1860 c-2 -49 -42 -173 -73 -229 -36 -65 -120 -174 -151 -196
-11 -8 -19 -17 -16 -20 11 -11 111 105 157 182 51 84 97 224 89 266 -4 20 -4
20 -6 -3z"/>
<path d="M3410 1383 c-55 -39 -158 -85 -235 -104 -38 -10 -62 -18 -52 -18 60
-3 272 85 311 128 25 27 19 26 -24 -6z"/>
</g>
</svg>
